<?xml version="1.0" standalone="no"?>
<!DOCTYPE svg PUBLIC "-//W3C//DTD SVG 20010904//EN"
 "http://www.w3.org/TR/2001/REC-SVG-20010904/DTD/svg10.dtd">
<svg version="1.0" xmlns="http://www.w3.org/2000/svg"
 width="1280.000000pt" height="1280.000000pt" viewBox="0 0 1280.000000 1280.000000"
 preserveAspectRatio="xMidYMid meet">
<metadata>
Created by potrace 1.11, written by Peter Selinger 2001-2013
</metadata>
<g transform="translate(0.000000,1280.000000) scale(0.100000,-0.100000)"
fill="#000000" stroke="none">
<path d="M18 10962 c-16 -3 -16 -6 -4 -30 7 -15 17 -40 21 -57 5 -16 9 -34 11
-40 1 -5 12 -35 24 -65 12 -30 23 -66 26 -80 3 -13 10 -30 16 -37 6 -7 8 -13
5 -13 -3 0 4 -24 14 -52 11 -29 22 -60 24 -68 2 -8 16 -49 30 -90 14 -41 30
-91 36 -110 5 -19 14 -44 18 -55 21 -48 32 -83 34 -103 1 -12 5 -22 10 -22 5
0 7 -6 4 -14 -3 -8 -3 -16 1 -18 8 -3 165 -465 165 -485 0 -7 4 -13 9 -13 5 0
6 -4 3 -10 -3 -5 -1 -10 5 -10 6 0 9 -4 5 -10 -3 -5 -1 -17 4 -27 13 -24 184
-535 184 -550 0 -7 4 -13 9 -13 4 0 7 -3 6 -7 -2 -9 18 -72 98 -303 31 -91 57
-169 58 -175 1 -5 5 -16 9 -22 5 -7 5 -13 1 -13 -3 0 -1 -7 6 -15 7 -8 9 -15
4 -15 -5 0 -3 -4 3 -8 7 -4 14 -21 16 -38 2 -16 9 -39 15 -51 7 -12 12 -27 12
-33 0 -7 6 -26 14 -43 8 -18 28 -77 46 -132 17 -55 35 -109 40 -120 8 -18 21
-59 26 -77 1 -5 3 -10 4 -13 1 -3 3 -8 5 -12 1 -5 4 -15 8 -23 5 -14 29 -88
32 -100 1 -3 4 -12 8 -20 3 -8 29 -85 57 -170 28 -85 54 -162 57 -170 3 -8 8
-24 10 -35 2 -10 7 -22 11 -25 6 -4 9 -15 15 -55 1 -5 4 -12 7 -15 3 -3 29
-79 58 -170 30 -91 58 -174 63 -185 4 -11 18 -49 29 -85 12 -36 24 -72 27 -80
3 -8 7 -18 8 -22 2 -5 4 -10 5 -13 1 -3 4 -9 5 -15 1 -5 4 -12 5 -15 1 -3 3
-8 4 -12 4 -16 77 -234 90 -270 8 -21 17 -47 22 -58 4 -11 9 -29 11 -40 1 -11
7 -29 12 -40 10 -21 81 -228 85 -248 2 -7 6 -19 9 -27 4 -8 18 -51 32 -95 14
-44 30 -89 35 -100 7 -16 22 -61 36 -105 1 -3 5 -20 9 -37 4 -18 12 -33 17
-33 5 0 8 -6 7 -12 -1 -7 1 -20 4 -28 24 -58 46 -143 41 -153 -4 -7 -4 -9 1
-5 4 4 28 -52 52 -125 24 -72 47 -139 50 -147 3 -8 7 -17 8 -20 1 -5 19 -63
31 -100 3 -8 5 -16 4 -18 0 -1 6 -15 15 -32 8 -16 17 -37 18 -47 2 -10 7 -25
10 -33 3 -8 13 -37 21 -65 25 -84 89 -270 95 -275 3 -3 7 -11 9 -18 1 -7 4
-20 6 -30 1 -9 6 -25 10 -34 4 -9 9 -22 10 -30 3 -13 7 -25 29 -83 7 -16 12
-32 13 -35 0 -3 3 -12 7 -20 3 -8 20 -60 38 -115 17 -55 34 -104 38 -110 3 -5
6 -12 6 -15 1 -14 29 -106 35 -115 3 -5 12 -30 19 -55 13 -45 19 -62 38 -110
13 -33 113 -330 118 -350 2 -8 4 -16 5 -17 2 -2 3 -6 4 -10 4 -18 28 -89 36
-108 9 -20 150 -442 155 -460 1 -5 7 -23 14 -40 7 -16 13 -38 14 -47 1 -10 5
-18 9 -18 4 0 7 -3 6 -7 -1 -5 9 -39 22 -78 13 -38 25 -74 27 -80 1 -5 25 -77
54 -160 28 -82 52 -156 52 -162 0 -7 4 -13 9 -13 4 0 7 -3 6 -7 -1 -7 8 -42
27 -103 3 -8 16 -44 25 -65 14 -34 61 -179 66 -205 11 -53 -38 -50 923 -50
l896 0 23 65 c13 36 25 71 26 77 2 7 8 26 14 41 7 16 12 34 12 41 0 6 5 17 12
24 7 7 9 12 5 12 -4 0 1 17 12 39 11 21 18 41 15 43 -2 3 4 26 15 52 11 25 20
47 20 49 -1 4 8 30 27 82 10 28 19 55 20 60 1 6 14 44 29 85 14 41 28 82 30
90 2 8 4 16 5 18 2 1 3 5 5 10 1 4 5 15 9 24 4 9 9 22 10 30 2 7 6 21 10 30 4
9 8 22 10 30 1 7 4 18 7 23 3 6 25 69 48 140 24 72 46 139 51 150 13 31 24 69
22 78 -1 4 3 7 9 7 5 0 8 4 5 9 -3 5 1 21 9 37 7 15 12 31 9 36 -3 4 0 8 5 8
6 0 10 3 9 8 -2 12 14 66 25 80 5 7 7 15 4 19 -4 3 -3 11 2 17 5 6 28 70 51
141 24 72 46 131 51 133 4 2 5 10 2 18 -3 8 -1 14 4 14 5 0 10 11 11 26 1 14
7 34 13 45 6 11 12 30 14 42 3 12 9 31 14 42 9 19 54 154 56 165 0 3 3 10 6
15 4 6 9 22 13 37 3 15 11 40 18 55 6 15 12 30 13 33 20 68 30 97 35 105 4 6
11 24 15 40 12 45 12 45 15 48 1 1 3 9 5 17 1 8 12 38 23 65 11 28 21 55 22
60 1 6 4 15 6 20 18 49 86 253 89 265 3 16 52 155 63 180 3 8 6 20 7 25 0 6 3
15 6 20 6 10 30 79 35 100 2 6 19 57 39 115 21 58 38 111 38 118 0 6 5 12 10
12 6 0 8 2 5 5 -3 4 7 41 22 85 16 43 26 81 23 84 -4 3 -1 6 6 6 8 0 11 7 7
15 -3 8 -1 15 4 15 6 0 9 3 9 8 -1 4 0 9 1 12 1 3 3 12 5 20 2 8 15 45 29 83
13 37 23 67 21 67 -2 0 8 28 21 63 13 34 26 73 29 86 2 13 8 27 12 30 8 6 10
14 18 51 2 8 4 15 5 15 1 0 4 11 6 25 2 13 10 28 17 32 6 4 9 8 5 8 -6 0 9 51
39 130 3 8 7 20 8 25 4 14 81 242 115 337 15 42 25 79 22 83 -3 3 1 5 8 5 7 0
11 3 7 6 -6 6 12 62 35 110 5 11 8 24 7 30 -2 5 2 18 8 29 13 25 95 265 96
283 0 6 4 12 9 12 4 0 7 3 7 8 -1 4 0 9 1 12 3 10 11 45 12 58 1 6 5 12 9 12
6 0 20 54 18 74 0 5 3 12 8 15 4 3 19 40 32 81 13 41 28 86 33 100 5 14 9 26
9 28 -1 1 5 17 13 36 8 19 12 37 8 40 -3 3 0 6 6 6 6 0 9 7 6 15 -4 8 -1 15 7
15 7 0 9 3 6 7 -4 3 -2 12 3 19 6 6 10 16 9 20 -1 5 1 16 5 24 8 19 176 510
181 530 2 8 4 16 5 18 2 1 4 7 5 12 1 6 4 12 5 15 1 3 4 10 5 15 1 6 4 13 5
18 1 4 2 10 1 15 0 4 3 7 9 7 5 0 10 10 11 23 1 20 1 20 9 -4 4 -15 11 -50 14
-79 4 -29 8 -56 11 -59 2 -4 6 -25 8 -46 3 -22 8 -47 11 -55 3 -8 8 -31 10
-50 2 -19 10 -62 16 -95 6 -33 13 -73 16 -90 6 -36 11 -63 17 -90 4 -15 15
-87 22 -135 0 -3 3 -9 6 -15 4 -5 5 -20 4 -32 -1 -13 1 -23 5 -23 4 0 6 -11 5
-25 -2 -14 1 -25 6 -25 6 0 8 -3 5 -8 -2 -4 0 -30 5 -57 6 -28 12 -63 14 -80
2 -16 4 -30 5 -30 2 0 4 -9 5 -20 1 -12 10 -56 19 -99 10 -42 15 -84 12 -92
-3 -8 -2 -13 3 -10 4 3 15 -34 24 -82 9 -48 19 -98 21 -112 3 -14 20 -92 37
-175 18 -82 32 -160 32 -172 1 -13 4 -23 7 -23 4 0 7 -6 7 -12 1 -18 11 -83
13 -83 3 0 13 -52 14 -77 0 -16 4 -28 8 -28 4 0 7 -10 7 -22 -1 -22 4 -49 15
-86 3 -9 8 -29 11 -44 3 -16 7 -39 10 -53 3 -14 7 -35 9 -47 2 -13 12 -59 21
-103 10 -44 19 -89 20 -100 2 -11 8 -38 13 -59 6 -22 9 -43 6 -48 -3 -4 -1 -8
3 -8 5 0 9 -8 9 -17 1 -10 4 -31 8 -48 9 -38 16 -73 20 -105 2 -14 5 -25 6
-25 2 0 7 -26 15 -70 3 -16 9 -48 14 -70 5 -22 25 -121 45 -220 21 -99 39
-189 42 -200 2 -11 7 -33 10 -50 2 -16 9 -46 14 -65 5 -19 10 -50 12 -67 1
-18 5 -33 9 -33 4 0 7 -11 7 -24 0 -13 5 -46 11 -74 7 -27 14 -58 16 -68 2
-11 4 -19 5 -19 1 0 3 -13 5 -28 5 -37 24 -133 35 -177 9 -35 31 -142 35 -170
2 -8 10 -49 18 -90 17 -78 24 -115 34 -165 8 -46 11 -60 13 -60 3 0 10 -39 12
-60 1 -11 4 -24 8 -30 3 -5 6 -17 5 -25 -1 -8 3 -26 7 -39 5 -14 11 -45 14
-70 3 -25 9 -50 13 -56 4 -5 8 -21 9 -36 1 -21 8 -54 37 -189 1 -8 13 -64 25
-125 12 -60 27 -116 32 -123 7 -8 7 -12 -1 -12 -7 0 -9 -4 -6 -10 6 -10 14
-41 19 -75 2 -11 4 -20 5 -20 3 0 9 -28 15 -70 5 -29 10 -52 21 -105 4 -14 8
-36 11 -50 2 -14 11 -56 20 -95 9 -38 18 -81 20 -95 3 -14 7 -36 10 -50 3 -14
7 -34 9 -45 2 -11 13 -63 24 -115 11 -52 22 -106 25 -120 5 -27 35 -173 43
-205 2 -11 6 -31 9 -45 7 -46 14 -81 29 -150 2 -8 4 -17 5 -20 1 -3 2 -8 1
-12 0 -5 409 -8 909 -8 l910 0 11 27 c6 16 12 37 13 49 2 11 6 25 9 31 6 9 17
53 20 83 1 8 5 17 8 20 8 7 31 90 33 118 0 12 4 22 8 22 5 0 7 3 7 8 -1 4 0 9
1 12 1 3 3 12 5 20 10 52 79 287 86 296 5 6 6 13 4 16 -3 3 0 18 6 34 7 16 13
36 14 44 1 8 12 48 24 88 12 40 19 76 16 81 -3 5 -2 11 3 13 8 3 102 332 102
356 0 6 5 12 12 12 6 0 9 3 6 6 -4 3 3 36 13 72 11 37 21 76 23 87 1 12 6 26
10 33 4 7 5 16 2 21 -4 5 -2 11 3 13 6 1 12 14 14 28 2 14 7 32 10 40 3 8 22
76 42 150 20 74 38 141 40 148 3 7 5 14 5 17 0 3 7 23 15 45 8 22 14 42 15 45
0 3 0 6 1 8 0 1 3 15 5 32 3 16 8 32 12 35 4 3 8 14 10 25 6 38 12 61 72 270
34 116 62 218 63 228 1 9 5 17 10 17 5 0 7 7 4 15 -4 8 -2 17 4 20 5 4 7 10 4
15 -3 5 -1 11 4 15 5 3 8 14 6 25 -2 11 0 20 4 20 4 0 8 6 9 13 3 24 9 52 15
67 8 24 37 123 42 145 2 11 15 57 28 103 14 45 25 85 26 87 2 7 3 14 6 23 1 4
5 21 10 37 4 17 10 34 13 40 3 5 7 18 9 30 3 25 11 59 13 63 2 1 4 7 5 12 1 6
3 11 5 13 1 1 4 15 6 32 3 16 10 35 16 42 5 7 7 17 4 22 -4 5 -2 12 3 15 4 3
12 25 16 48 5 24 9 45 10 48 1 3 4 12 8 20 3 8 24 83 47 165 22 83 44 157 47
165 3 8 7 25 8 37 1 12 7 28 13 36 7 8 10 16 7 19 -2 2 6 40 20 83 13 43 22
82 19 87 -3 4 0 8 7 8 7 0 9 3 6 7 -4 3 -2 12 4 20 6 7 9 13 6 13 -3 0 -1 15
4 33 6 17 12 39 14 47 2 8 13 47 25 85 11 39 22 77 24 85 2 8 9 35 16 60 7 25
11 45 10 45 -1 0 4 14 10 30 7 17 14 44 17 60 3 17 9 35 14 41 5 7 9 16 8 20
-1 5 0 11 1 14 1 3 3 12 5 20 2 8 16 56 30 105 14 50 28 97 30 105 6 28 36
135 42 150 3 8 7 20 7 25 4 31 20 82 28 93 6 6 8 12 5 12 -3 0 -1 15 4 33 6
17 12 42 15 54 2 12 9 35 15 50 11 30 19 58 22 83 1 8 8 25 14 36 7 12 10 24
7 27 -3 3 -2 12 2 19 5 7 10 22 12 33 5 26 10 49 13 55 1 3 3 10 4 15 1 6 5
17 8 25 7 19 48 157 52 179 4 23 55 203 62 221 3 8 7 20 8 25 1 6 3 12 4 15 1
3 4 16 7 29 2 12 13 50 24 83 11 33 19 63 18 66 -1 4 1 14 4 22 20 58 52 175
47 175 -1 0 3 10 9 21 6 12 14 34 17 50 2 16 13 57 24 91 10 34 16 64 13 67
-3 3 1 6 8 6 7 0 11 3 8 6 -4 3 -2 20 3 37 6 18 12 41 14 51 3 11 11 40 19 65
7 25 26 91 41 146 15 55 29 106 31 113 2 7 4 14 4 17 0 3 7 23 15 45 8 22 14
41 14 43 -1 1 4 20 10 42 6 22 11 43 11 48 0 4 6 23 14 42 8 19 13 35 11 35
-3 0 0 12 6 28 6 15 13 38 15 52 3 14 8 36 13 50 5 14 16 51 25 83 8 31 22 81
30 110 9 28 23 81 33 117 9 36 20 67 23 70 3 3 6 12 7 20 3 28 13 69 23 94 5
13 6 27 3 30 -4 3 -2 6 3 6 5 0 10 8 11 18 1 16 9 52 14 62 1 3 3 10 4 15 1 6
5 17 8 25 6 15 57 196 61 215 1 6 10 37 20 70 10 33 20 71 23 84 2 14 6 28 9
33 3 4 7 17 10 28 2 11 7 30 10 43 3 12 6 28 6 35 1 6 6 12 11 12 6 0 8 3 5 6
-4 3 -2 20 4 37 5 18 11 37 12 42 2 6 6 17 9 25 3 8 8 29 11 45 7 35 14 60 16
60 1 0 3 7 5 15 2 8 11 40 19 70 12 41 12 56 3 62 -6 4 -17 2 -24 -4 -8 -6
-13 -7 -13 -1 0 10 -41 10 -57 0 -5 -3 -15 -2 -23 3 -9 5 -19 5 -27 -2 -7 -6
-13 -6 -13 -1 0 5 -9 9 -20 9 -11 0 -20 -3 -20 -6 0 -6 -50 -4 -85 3 -11 3
-27 1 -36 -4 -8 -4 -21 -4 -29 1 -7 4 -23 5 -35 0 -11 -4 -28 -4 -37 1 -10 6
-19 6 -23 0 -4 -7 -15 -7 -31 -1 -18 7 -23 7 -18 -1 4 -8 1 -8 -12 -2 -20 10
-61 10 -71 0 -3 -4 -14 -2 -24 4 -14 7 -19 6 -19 -3 0 -8 -3 -9 -8 -3 -9 13
-52 15 -52 2 0 -5 -7 -4 -15 3 -12 10 -15 10 -15 0 0 -8 -4 -9 -12 -4 -15 11
-78 11 -96 0 -7 -4 -12 -2 -12 4 0 8 -6 8 -20 0 -11 -6 -20 -7 -20 -2 0 4 -9
8 -20 8 -11 0 -20 -4 -20 -9 0 -5 -6 -4 -14 2 -10 9 -20 9 -33 2 -11 -5 -25
-6 -33 -1 -7 4 -23 5 -35 0 -11 -4 -28 -4 -37 1 -10 6 -19 6 -23 0 -4 -7 -15
-7 -31 -1 -18 7 -23 7 -18 -1 4 -8 1 -8 -12 -2 -20 10 -55 10 -71 0 -5 -3 -15
-2 -22 3 -8 4 -26 4 -41 0 -15 -4 -33 -4 -41 1 -8 4 -19 3 -26 -3 -8 -6 -13
-7 -13 -1 0 9 -69 8 -96 -1 -6 -2 -17 0 -25 4 -8 5 -19 4 -26 -2 -8 -6 -13 -7
-13 -1 0 9 -69 8 -96 -1 -6 -2 -17 0 -25 4 -8 5 -19 4 -26 -2 -8 -6 -13 -7
-13 -1 0 9 -69 8 -96 -1 -6 -2 -17 0 -25 4 -8 5 -19 4 -26 -2 -7 -6 -13 -6
-13 -1 0 10 -60 10 -78 -1 -7 -4 -12 -16 -12 -27 0 -10 -4 -19 -9 -19 -5 0 -8
-11 -6 -25 1 -14 -1 -25 -5 -25 -5 0 -6 -9 -3 -20 3 -11 1 -20 -4 -20 -5 0 -9
-8 -9 -17 -1 -20 -10 -63 -18 -91 -3 -9 -7 -28 -10 -42 -2 -14 -9 -45 -16 -70
-7 -25 -14 -56 -17 -70 -2 -14 -15 -72 -29 -130 -35 -149 -35 -152 -40 -180
-3 -14 -8 -34 -11 -45 -12 -34 -28 -126 -25 -137 1 -5 -2 -8 -6 -8 -5 0 -9 -6
-10 -12 -2 -26 -9 -64 -15 -83 -6 -21 -16 -65 -22 -100 -2 -11 -4 -21 -5 -22
-2 -2 -3 -6 -4 -10 -3 -13 -29 -127 -32 -138 -9 -47 -68 -303 -72 -315 -9 -26
-23 -95 -25 -122 -1 -10 -4 -18 -7 -18 -3 0 -6 -8 -7 -17 -3 -41 -8 -63 -13
-63 -3 0 -6 -10 -7 -22 -1 -22 -7 -53 -17 -86 -3 -9 -7 -29 -10 -45 -3 -15 -7
-35 -10 -45 -3 -9 -7 -28 -10 -42 -3 -14 -17 -74 -31 -135 -36 -152 -35 -146
-41 -185 -3 -19 -9 -37 -13 -40 -6 -5 -11 -29 -13 -68 0 -12 -4 -25 -9 -28 -4
-2 -6 -11 -2 -19 3 -8 1 -15 -3 -15 -5 0 -10 -10 -11 -22 -2 -28 -7 -55 -16
-88 -6 -22 -14 -57 -21 -100 -2 -8 -6 -23 -10 -32 -4 -9 -5 -22 -1 -28 3 -5 2
-10 -2 -10 -5 0 -10 -8 -10 -17 -1 -10 -14 -67 -28 -128 -14 -60 -28 -121 -31
-135 -2 -14 -7 -31 -10 -39 -2 -8 -7 -30 -10 -50 -3 -20 -9 -38 -13 -41 -3 -3
-6 -14 -7 -25 -1 -28 -8 -61 -44 -210 -17 -71 -33 -141 -36 -155 -3 -14 -16
-70 -29 -125 -13 -55 -31 -136 -41 -180 -10 -44 -21 -82 -24 -85 -3 -3 -6 -14
-6 -25 -1 -22 -11 -80 -14 -80 -3 0 -11 -40 -14 -65 -1 -14 -5 -30 -8 -35 -3
-6 -9 -26 -12 -45 -3 -19 -10 -50 -15 -68 -5 -18 -10 -35 -10 -37 -1 -3 -1 -6
-2 -7 -1 -3 -2 -11 -13 -58 -7 -36 -12 -57 -31 -135 -9 -38 -19 -81 -21 -95
-3 -14 -8 -34 -11 -45 -4 -11 -7 -27 -8 -35 -1 -8 -12 -55 -25 -105 -12 -49
-23 -99 -24 -110 -1 -11 -5 -26 -9 -32 -5 -7 -6 -13 -2 -13 3 0 -1 -16 -9 -35
-10 -22 -11 -35 -4 -35 7 0 7 -4 0 -13 -6 -6 -11 -15 -11 -19 -1 -5 -1 -9 -2
-10 -3 -10 -9 -37 -14 -63 -3 -16 -10 -43 -15 -60 -5 -16 -12 -50 -16 -75 -4
-25 -8 -47 -9 -50 -2 -12 -17 -87 -22 -110 -3 -14 -6 -29 -7 -35 -2 -5 -6 -32
-11 -60 -4 -27 -10 -54 -13 -59 -3 -5 -6 -21 -8 -35 -1 -14 -5 -37 -8 -51 -9
-37 -18 -82 -21 -105 -1 -11 -3 -20 -5 -20 -1 0 -4 -11 -5 -25 -4 -26 -9 -55
-19 -102 -3 -16 -8 -38 -10 -50 -2 -13 -7 -30 -10 -38 -3 -8 -8 -33 -10 -55
-5 -37 -7 -50 -20 -110 -3 -11 -14 -67 -26 -125 -12 -58 -23 -112 -24 -120 -2
-8 -9 -49 -16 -90 -7 -41 -17 -79 -22 -85 -6 -7 -9 -7 -8 0 2 6 1 13 0 18 -1
4 -4 16 -5 27 -1 11 -3 21 -4 23 -2 1 -4 13 -6 27 -3 24 -8 48 -20 100 -3 14
-7 39 -9 55 -2 17 -7 41 -10 55 -10 45 -45 226 -61 315 -7 44 -14 78 -36 190
-11 55 -22 115 -25 134 -2 19 -7 38 -10 43 -3 5 -8 28 -11 51 -5 47 -10 82
-13 82 -2 0 -6 21 -14 70 -4 22 -32 161 -62 310 -30 148 -57 279 -59 290 -2
11 -6 31 -9 45 -8 34 -25 119 -30 150 -3 14 -5 25 -6 25 -1 0 -3 11 -6 25 -2
14 -8 45 -14 70 -5 25 -12 56 -15 70 -7 38 -35 172 -40 195 -20 93 -74 356
-80 394 -3 19 -7 37 -9 40 -2 3 -7 23 -10 43 -3 21 -11 59 -17 85 -6 27 -12
57 -15 68 -5 27 -20 97 -29 138 -3 12 -12 56 -20 97 -8 41 -17 86 -20 100 -4
23 -7 35 -21 100 -3 14 -7 36 -10 50 -2 14 -7 36 -10 50 -3 14 -8 36 -10 49
-3 13 -11 50 -18 82 -8 32 -12 60 -9 63 3 3 1 11 -5 18 -5 7 -13 33 -16 58 -4
25 -11 63 -17 85 -8 35 -12 54 -24 125 -1 8 -6 23 -10 33 -4 9 -5 24 -1 32 3
8 2 15 -3 15 -4 0 -8 6 -9 13 -1 13 0 12 -43 217 -17 80 -32 154 -34 165 -2
11 -5 29 -8 40 -2 11 -8 38 -12 60 -10 45 -12 54 -15 58 -1 1 -3 13 -5 27 -1
14 -5 35 -8 46 -3 12 -8 37 -11 55 -3 19 -8 45 -12 59 -3 14 -7 34 -8 45 -1
11 -5 25 -9 32 -4 7 -9 32 -11 56 -2 25 -6 50 -10 55 -3 6 -8 23 -10 39 -5 33
-15 82 -21 103 -2 8 -7 31 -10 50 -3 19 -8 42 -10 50 -2 8 -7 31 -10 50 -3 19
-10 51 -15 70 -6 19 -10 47 -10 63 0 15 -4 27 -8 27 -4 0 -8 8 -9 18 -1 24
-11 80 -22 126 -5 22 -9 42 -9 45 1 3 -1 13 -4 21 -3 8 -11 44 -17 80 -19 101
-19 105 -21 105 -2 0 -6 17 -14 65 -3 19 -10 53 -15 74 -6 22 -9 42 -9 45 1 3
-1 13 -5 21 -5 12 -19 81 -43 205 -2 11 -8 40 -14 65 -5 25 -12 57 -15 73 -3
15 -7 39 -10 55 -3 15 -10 47 -15 72 -6 25 -12 54 -14 65 -6 38 -18 56 -30 46
-6 -4 -20 -5 -31 -1 -11 4 -27 4 -36 -1 -8 -4 -21 -4 -29 1 -7 4 -24 4 -37 -1
-12 -5 -23 -5 -23 0 0 9 -31 8 -48 -3 -7 -4 -12 -2 -12 6 0 10 -2 10 -9 -1 -5
-7 -11 -9 -14 -4 -6 10 -78 10 -95 -1 -7 -4 -12 -2 -12 4 0 8 -6 8 -20 0 -11
-6 -20 -7 -20 -2 0 4 -9 8 -20 8 -11 0 -20 -4 -20 -9 0 -5 -6 -4 -14 2 -10 9
-20 9 -33 2 -11 -5 -25 -6 -33 -1 -7 4 -23 5 -35 0 -11 -4 -28 -4 -37 1 -10 6
-19 6 -23 0 -4 -7 -15 -7 -31 -1 -18 7 -23 7 -18 -2 5 -7 3 -8 -6 -3 -18 11
-52 13 -71 4 -8 -4 -21 -4 -29 1 -9 5 -19 5 -27 -2 -7 -6 -13 -6 -13 -1 0 5
-9 9 -20 9 -11 0 -20 -3 -20 -6 0 -6 -50 -4 -85 3 -11 3 -27 1 -36 -4 -8 -4
-21 -4 -29 1 -7 4 -23 5 -35 0 -11 -4 -28 -4 -37 1 -10 6 -19 6 -23 0 -4 -7
-15 -7 -31 -1 -18 7 -23 7 -18 -1 4 -8 1 -8 -12 -2 -20 10 -55 10 -71 0 -5 -3
-15 -2 -23 3 -9 5 -19 5 -27 -2 -7 -6 -13 -6 -13 -1 0 5 -9 9 -20 9 -11 0 -20
-3 -20 -6 0 -6 -50 -4 -85 3 -11 3 -27 1 -36 -4 -8 -4 -21 -4 -29 1 -7 4 -23
5 -35 0 -11 -4 -28 -4 -37 1 -11 6 -19 5 -23 -1 -4 -7 -12 -7 -24 0 -12 6 -22
5 -29 -2 -9 -9 -12 -9 -12 0 0 10 -5 10 -20 2 -11 -6 -20 -7 -20 -2 0 4 -9 8
-20 8 -11 0 -20 -4 -20 -9 0 -5 -6 -4 -14 2 -10 9 -20 9 -33 2 -11 -5 -25 -6
-33 -1 -7 4 -23 5 -35 0 -12 -5 -28 -4 -35 0 -9 5 -20 4 -28 -2 -8 -7 -16 -8
-20 -2 -4 5 -17 9 -29 10 -19 0 -25 -9 -39 -55 -9 -31 -25 -83 -35 -116 -10
-33 -20 -69 -22 -80 -2 -11 -7 -27 -10 -35 -4 -8 -9 -26 -11 -40 -3 -14 -5
-27 -6 -30 -2 -3 -2 -8 -1 -12 0 -5 -4 -8 -11 -8 -6 0 -9 -3 -6 -6 4 -3 2 -20
-3 -37 -6 -18 -12 -39 -14 -47 -2 -8 -27 -94 -55 -190 -28 -96 -53 -182 -55
-190 -2 -8 -4 -15 -5 -15 -1 0 -3 -7 -5 -15 -10 -40 -15 -60 -33 -122 -11 -37
-17 -70 -14 -73 3 -3 0 -5 -6 -5 -7 0 -12 -8 -12 -17 0 -10 -23 -94 -51 -188
-27 -93 -52 -181 -55 -194 -3 -14 -7 -28 -10 -33 -6 -9 -16 -55 -17 -75 0 -7
-4 -13 -8 -13 -3 0 -9 -12 -12 -27 -7 -39 -20 -86 -30 -113 -7 -19 -127 -438
-132 -464 -3 -10 -9 -34 -15 -52 -6 -18 -13 -45 -16 -60 -3 -16 -10 -34 -16
-41 -6 -8 -8 -16 -5 -20 4 -3 2 -14 -4 -25 -6 -11 -12 -27 -14 -36 -3 -15 -49
-175 -91 -317 -8 -27 -16 -57 -18 -66 -3 -9 -9 -33 -14 -53 -6 -20 -7 -36 -4
-36 4 0 2 -4 -4 -8 -9 -6 -20 -42 -49 -152 -2 -8 -4 -16 -5 -17 -2 -2 -4 -7
-5 -13 -1 -5 -3 -11 -5 -12 -1 -2 -3 -12 -5 -23 -2 -11 -11 -44 -19 -72 -9
-29 -23 -79 -32 -110 -9 -32 -20 -69 -24 -83 -14 -43 -42 -139 -44 -152 -2 -7
-7 -24 -13 -38 -6 -14 -13 -43 -18 -65 -4 -22 -10 -44 -13 -50 -4 -5 -7 -15
-8 -22 -1 -6 -23 -84 -49 -173 -26 -89 -48 -167 -49 -173 -8 -39 -20 -74 -29
-84 -5 -7 -7 -13 -4 -13 3 0 -3 -27 -13 -60 -10 -33 -16 -60 -13 -60 3 0 0 -7
-7 -15 -11 -13 -18 -40 -23 -90 -1 -11 -5 -22 -8 -25 -6 -4 -42 -122 -53 -170
-2 -8 -18 -64 -36 -125 -18 -60 -34 -118 -35 -127 -2 -9 -9 -26 -15 -38 -6
-12 -9 -24 -7 -27 3 -2 -1 -20 -9 -39 -8 -19 -11 -34 -8 -34 4 0 2 -6 -4 -12
-6 -7 -11 -16 -11 -20 -1 -5 -1 -9 -2 -10 0 -2 -2 -10 -4 -18 -17 -74 -110
-386 -116 -388 -4 -2 -5 -10 -2 -18 3 -8 0 -20 -6 -28 -7 -8 -11 -18 -10 -22
1 -5 0 -12 -1 -16 -1 -5 -3 -11 -4 -15 -2 -5 -9 -28 -16 -53 -8 -25 -15 -49
-16 -55 -1 -5 -3 -14 -4 -20 -2 -5 -4 -14 -5 -20 -1 -5 -5 -17 -8 -25 -4 -8
-30 -96 -58 -195 -28 -99 -55 -185 -60 -191 -5 -6 -7 -13 -4 -16 3 -3 -4 -33
-15 -68 -11 -35 -18 -65 -15 -68 3 -3 1 -10 -4 -16 -7 -9 -111 -355 -126 -419
-14 -64 -41 -137 -50 -137 -5 0 -3 -5 5 -10 11 -7 11 -10 2 -10 -7 0 -11 -4
-7 -9 8 -14 -16 -61 -32 -61 -7 0 -12 3 -11 8 3 10 -11 69 -29 122 -8 25 -16
52 -18 61 -2 9 -13 49 -25 90 -12 41 -23 79 -24 86 -1 7 -5 15 -8 19 -4 3 -4
12 -1 20 3 8 0 14 -5 14 -6 0 -9 9 -7 20 2 11 0 20 -4 20 -4 0 -8 6 -9 13 0 6
-6 30 -12 52 -6 22 -13 47 -15 55 -2 8 -4 15 -5 15 -1 0 -3 7 -5 15 -1 8 -26
96 -55 195 -29 99 -53 185 -54 190 -2 6 -9 30 -16 55 -14 48 -18 60 -24 88 -3
9 -5 18 -6 20 -2 1 -4 7 -5 12 -1 6 -3 11 -4 13 -2 1 -4 11 -7 22 -2 11 -26
99 -54 195 -28 96 -53 182 -55 190 -14 60 -30 116 -35 120 -3 3 -6 14 -8 25
-2 11 -17 67 -34 125 -17 58 -31 110 -33 115 -1 6 -4 17 -7 25 -4 11 -100 346
-122 425 -2 6 -6 27 -11 48 -4 20 -11 40 -16 43 -5 3 -7 10 -3 15 3 5 2 15 -3
22 -11 13 -39 127 -35 140 1 4 -3 7 -8 7 -6 0 -10 7 -10 16 0 8 -18 78 -40
154 -22 76 -40 146 -40 154 0 9 -4 16 -10 16 -5 0 -7 6 -4 14 3 8 1 17 -5 20
-6 4 -8 13 -4 21 3 8 1 15 -4 15 -5 0 -10 14 -11 32 -2 18 -6 35 -10 38 -7 5
-8 9 -16 53 -3 12 -5 22 -6 22 -1 0 -3 8 -5 18 -2 10 -7 26 -11 35 -4 9 -9 26
-11 36 -2 11 -17 67 -34 125 -17 58 -32 113 -34 121 -2 8 -8 27 -14 43 -6 15
-7 27 -4 27 4 0 2 5 -5 12 -7 7 -12 25 -12 40 0 15 -4 28 -8 28 -4 0 -8 8 -9
18 -1 9 -13 58 -28 107 -15 50 -28 97 -30 105 -2 8 -18 65 -36 125 -17 61 -32
115 -33 122 -1 7 -5 16 -9 19 -4 4 -7 15 -7 24 0 9 -9 43 -19 76 -11 32 -22
71 -25 86 -2 14 -9 35 -15 46 -6 11 -8 22 -5 25 3 3 1 13 -4 24 -9 16 -27 74
-37 122 -2 9 -22 79 -45 156 -23 77 -43 149 -46 161 -2 12 -10 40 -18 63 -9
22 -13 41 -9 41 3 0 0 7 -7 15 -7 8 -10 15 -6 15 4 0 0 13 -8 29 -9 16 -12 31
-9 34 3 4 0 13 -7 22 -7 8 -9 15 -5 15 4 0 1 8 -6 17 -12 15 -12 16 1 8 12 -7
13 -6 3 6 -6 8 -14 26 -16 39 -3 14 -10 36 -15 50 -5 14 -10 28 -11 32 -1 4
-3 13 -6 20 -2 7 -20 72 -40 143 -20 72 -43 155 -52 185 -9 30 -16 63 -17 73
0 9 -4 17 -9 17 -4 0 -7 6 -6 13 1 6 0 19 -4 27 -3 8 -13 42 -22 75 -10 33
-20 67 -23 75 -3 8 -7 24 -9 35 -6 26 -9 37 -15 55 -6 15 -36 121 -43 150 -2
8 -4 15 -5 15 -1 0 -3 7 -5 16 -1 9 -10 42 -19 73 -9 31 -17 58 -17 61 0 3 -6
23 -14 45 -8 22 -15 44 -16 48 -3 15 -7 28 -18 67 -7 22 -14 47 -15 55 -2 8
-5 22 -8 30 -11 31 -60 204 -64 229 -6 31 -23 62 -24 42 0 -9 -4 -10 -12 -5
-16 11 -39 11 -56 1 -6 -5 -12 -4 -12 1 0 5 -17 6 -39 2 -22 -4 -45 -3 -52 1
-8 4 -19 3 -26 -3 -8 -6 -13 -7 -13 -1 0 9 -69 8 -96 -1 -6 -2 -17 0 -25 4 -8
5 -19 4 -26 -2 -8 -6 -13 -7 -13 -1 0 9 -69 8 -96 -1 -6 -2 -17 0 -25 4 -8 5
-19 4 -26 -2 -8 -6 -13 -7 -13 -1 0 9 -69 8 -96 -1 -6 -2 -17 0 -25 4 -8 5
-19 4 -26 -2 -8 -6 -13 -7 -13 -1 0 6 -12 9 -27 7 -40 -5 -74 -5 -103 -1 -14
2 -32 0 -41 -4 -8 -4 -21 -4 -29 1 -9 5 -19 5 -27 -2 -7 -6 -13 -6 -13 -1 0 5
-9 9 -20 9 -11 0 -20 -3 -20 -6 0 -6 -50 -4 -85 3 -11 3 -27 1 -36 -4 -8 -4
-21 -4 -29 1 -7 4 -23 5 -35 0 -11 -4 -28 -4 -37 1 -10 6 -19 6 -23 0 -4 -7
-15 -7 -31 -1 -18 7 -23 7 -18 -1 4 -8 1 -8 -12 -2 -20 10 -61 10 -71 0 -3 -4
-14 -2 -24 4 -14 7 -19 6 -19 -3 0 -8 -3 -9 -8 -3 -9 13 -52 15 -52 2 0 -5 -7
-4 -15 3 -12 10 -15 10 -15 0 0 -8 -4 -9 -12 -4 -15 11 -78 11 -96 0 -7 -4
-12 -2 -12 4 0 8 -6 8 -20 0 -11 -6 -20 -7 -20 -2 0 4 -9 8 -20 8 -11 0 -20
-4 -20 -9 0 -5 -6 -4 -14 2 -10 9 -20 9 -33 2 -11 -5 -25 -6 -33 -1 -7 4 -23
5 -35 0 -11 -4 -28 -4 -37 1 -10 6 -19 6 -23 0 -4 -7 -15 -7 -31 -1 -18 7 -23
7 -18 -2 4 -7 3 -8 -5 -4 -19 12 -61 14 -67 4 -4 -6 -9 -6 -13 -1 -3 5 -14 7
-23 5z"/>
</g>
</svg>
