<svg xmlns="http://www.w3.org/2000/svg" width="2190" height="2842" viewBox="0 0 2190 2842">
  <g id="Clouds" transform="translate(125 -287)">
    <path id="Rectangle_28" data-name="Rectangle 28" d="M20,0H492a20,20,0,0,1,20,20v0a0,0,0,0,1,0,0H0a0,0,0,0,1,0,0v0A20,20,0,0,1,20,0Z" transform="translate(1011 996)" fill="rgba(0,83,129,0.15)" opacity="0.9"/>
    <path id="Rectangle_24" data-name="Rectangle 24" d="M10,0H217a0,0,0,0,1,0,0V10a10,10,0,0,1-10,10H10A10,10,0,0,1,0,10v0A10,10,0,0,1,10,0Z" transform="translate(-75 448)" fill="rgba(0,83,129,0.15)"/>
    <path id="Path_4" data-name="Path 4" d="M22.543,0H326.125V10c0,5.523-10.093,10-22.543,10H22.543C10.093,20,0,15.523,0,10S10.093,0,22.543,0Z" transform="translate(119 341)" fill="rgba(0,83,129,0.05)"/>
    <path id="Rectangle_26" data-name="Rectangle 26" d="M10,0H217a0,0,0,0,1,0,0V10a10,10,0,0,1-10,10H10A10,10,0,0,1,0,10v0A10,10,0,0,1,10,0Z" transform="translate(1783 683)" fill="rgba(0,83,129,0.05)"/>
    <path id="Rectangle_27" data-name="Rectangle 27" d="M10,0H217a0,0,0,0,1,0,0V10a10,10,0,0,1-10,10H10A10,10,0,0,1,0,10v0A10,10,0,0,1,10,0Z" transform="translate(1527 287)" fill="rgba(0,83,129,0.1)"/>
    <path id="Path_6" data-name="Path 6" d="M20.221,0H292.526V10c0,5.523-9.053,10-20.221,10H20.221C9.053,20,0,15.523,0,10S9.053,0,20.221,0Z" transform="translate(-75 965)" fill="rgba(0,83,129,0.05)"/>
    <path id="Rectangle_29" data-name="Rectangle 29" d="M10,0H217a0,0,0,0,1,0,0V10a10,10,0,0,1-10,10H10A10,10,0,0,1,0,10v0A10,10,0,0,1,10,0Z" transform="translate(1783 1100)" fill="rgba(0,83,129,0.05)"/>
    <path id="Rectangle_34" data-name="Rectangle 34" d="M20,0H270a20,20,0,0,1,20,20v0a0,0,0,0,1,0,0H0a0,0,0,0,1,0,0v0A20,20,0,0,1,20,0Z" transform="translate(115 1349)" fill="rgba(0,83,129,0.15)" opacity="0.9"/>
    <path id="Rectangle_35" data-name="Rectangle 35" d="M20,0H270a20,20,0,0,1,20,20v0a0,0,0,0,1,0,0H0a0,0,0,0,1,0,0v0A20,20,0,0,1,20,0Z" transform="translate(1775 2417)" fill="rgba(0,83,129,0.15)" opacity="0.9"/>
    <path id="Path_8" data-name="Path 8" d="M19.184,0H277.526V10c0,5.523-8.589,10-19.184,10H19.184C8.589,20,0,15.523,0,10S8.589,0,19.184,0Z" transform="translate(1510.599 1270)" fill="rgba(0,83,129,0.05)"/>
    <path id="Path_9" data-name="Path 9" d="M13.3,0H148.027c0,11.046-5.953,20-13.3,20H0C0,8.954,5.953,0,13.3,0Z" transform="translate(1771.621 1828)" fill="rgba(0,83,129,0.25)"/>
    <path id="Path_10" data-name="Path 10" d="M20.221,0H292.526V10c0,5.523-9.053,10-20.221,10H20.221C9.053,20,0,15.523,0,10S9.053,0,20.221,0Z" transform="translate(-125 2011)" fill="rgba(0,83,129,0.05)"/>
    <path id="Path_11" data-name="Path 11" d="M11.76,0H130.923c0,11.046-5.265,20-11.76,20H0C0,8.954,5.265,0,11.76,0Z" transform="translate(21.726 2589)" fill="rgba(0,83,129,0.25)"/>
    <path id="Path_12" data-name="Path 12" d="M19.184,0H277.526V10c0,5.523-8.589,10-19.184,10H19.184C8.589,20,0,15.523,0,10S8.589,0,19.184,0Z" transform="translate(1510.599 1270)" fill="rgba(0,83,129,0.05)"/>
    <path id="Rectangle_40" data-name="Rectangle 40" d="M10,0H120a0,0,0,0,1,0,0V10a10,10,0,0,1-10,10H10A10,10,0,0,1,0,10v0A10,10,0,0,1,10,0Z" transform="translate(1116 3109)" fill="rgba(0,83,129,0.1)"/>
    <path id="Path_14" data-name="Path 14" d="M11.492,0h116.45c0,11.046-5.145,20-11.492,20H0C0,8.954,5.145,0,11.492,0Z" transform="translate(1657.562 2998)" fill="rgba(0,83,129,0.25)"/>
  </g>
</svg>
