<svg xmlns="http://www.w3.org/2000/svg" width="418.924" height="2258" viewBox="0 0 418.924 2258">
  <g id="Clouds" transform="translate(267 -409)">
    <path id="Rectangle_28" data-name="Rectangle 28" d="M10,0H181a10,10,0,0,1,10,10v0a0,0,0,0,1,0,0H0a0,0,0,0,1,0,0v0A10,10,0,0,1,10,0Z" transform="translate(-267 948)" fill="rgba(0,83,129,0.15)" opacity="0.9"/>
    <path id="Rectangle_24" data-name="Rectangle 24" d="M5,0h95a0,0,0,0,1,0,0V5a5,5,0,0,1-5,5H5A5,5,0,0,1,0,5V5A5,5,0,0,1,5,0Z" transform="translate(-267 409)" fill="rgba(0,83,129,0.15)"/>
    <path id="Path_4" data-name="Path 4" d="M16.97,0H245.5V5c0,2.761-7.6,5-16.97,5H16.97C7.6,10,0,7.761,0,5S7.6,0,16.97,0Z" transform="translate(-93.579 803)" fill="rgba(0,83,129,0.05)"/>
    <path id="Rectangle_26" data-name="Rectangle 26" d="M5,0H132a0,0,0,0,1,0,0V5a5,5,0,0,1-5,5H5A5,5,0,0,1,0,5V5A5,5,0,0,1,5,0Z" transform="translate(-118 1031)" fill="rgba(0,83,129,0.05)"/>
    <path id="Rectangle_27" data-name="Rectangle 27" d="M5,0h95a0,0,0,0,1,0,0V5a5,5,0,0,1-5,5H5A5,5,0,0,1,0,5V5A5,5,0,0,1,5,0Z" transform="translate(18 451)" fill="rgba(0,83,129,0.1)"/>
    <path id="Rectangle_29" data-name="Rectangle 29" d="M5,0h95a0,0,0,0,1,0,0V5a5,5,0,0,1-5,5H5A5,5,0,0,1,0,5V5A5,5,0,0,1,5,0Z" transform="translate(-252 1099)" fill="rgba(0,83,129,0.05)"/>
    <path id="Rectangle_34" data-name="Rectangle 34" d="M10,0H90a10,10,0,0,1,10,10v0a0,0,0,0,1,0,0H0a0,0,0,0,1,0,0v0A10,10,0,0,1,10,0Z" transform="translate(-195 1216)" fill="rgba(0,83,129,0.15)" opacity="0.9"/>
    <path id="Rectangle_35" data-name="Rectangle 35" d="M10,0H90a10,10,0,0,1,10,10v0a0,0,0,0,1,0,0H0a0,0,0,0,1,0,0v0A10,10,0,0,1,10,0Z" transform="translate(-24 1989)" fill="rgba(0,83,129,0.15)" opacity="0.9"/>
    <path id="Path_9" data-name="Path 9" d="M13.653,0H152c0,5.523-6.113,10-13.653,10H0C0,4.477,6.113,0,13.653,0Z" transform="translate(-61.745 1569.465)" fill="rgba(0,83,129,0.05)"/>
    <path id="Path_10" data-name="Path 10" d="M7.795,0H112.767V5c0,2.761-3.49,5-7.795,5H7.795C3.49,10,0,7.761,0,5S3.49,0,7.795,0Z" transform="translate(-257.948 1893.738)" fill="rgba(0,83,129,0.05)"/>
    <path id="Path_11" data-name="Path 11" d="M11.524,0H128.3c0,5.523-5.159,10-11.524,10H0C0,4.477,5.159,0,11.524,0Z" transform="translate(-96.572 2657)" fill="rgba(0,83,129,0.25)"/>
  </g>
</svg>
